<svg version="1.1" xmlns="http://www.w3.org/2000/svg" baseProfile="full"
	width="700" height="500" viewBox="0 0 700 500">
	<!--<g style="stroke:rgb(0,0,255);stroke-width:2">
		<line x1="0" y1="0" x2="600" y2="0"/>
		<line x1="0" y1="100" x2="600" y2="100"/>
		<line x1="0" y1="200" x2="600" y2="200"/>
		<line x1="0" y1="300" x2="600" y2="300"/>
		<line x1="0" y1="400" x2="600" y2="400"/>
		<line x1="0" y1="500" x2="600" y2="500"/>
		<line y1="0" x1="0" y2="500" x2="0"/>
		<line y1="0" x1="100" y2="500" x2="100"/>
		<line y1="0" x1="200" y2="500" x2="200"/>
		<line y1="0" x1="300" y2="500" x2="300"/>
		<line y1="0" x1="400" y2="500" x2="400"/>
		<line y1="0" x1="500" y2="500" x2="500"/>
		<line y1="0" x1="600" y2="500" x2="600"/>
	</g>
	<g style="stroke:rgb(255,0,0);stroke-width:1">
		<line x1="0" y1="50" x2="600" y2="50"/>
		<line x1="0" y1="150" x2="600" y2="150"/>
		<line x1="0" y1="250" x2="600" y2="250"/>
		<line x1="0" y1="350" x2="600" y2="350"/>
		<line x1="0" y1="450" x2="600" y2="450"/>
		<line y1="0" x1="50" y2="500" x2="50"/>
		<line y1="0" x1="150" y2="500" x2="150"/>
		<line y1="0" x1="250" y2="500" x2="250"/>
		<line y1="0" x1="350" y2="500" x2="350"/>
		<line y1="0" x1="450" y2="500" x2="450"/>
		<line y1="0" x1="550" y2="500" x2="550"/>
	</g>-->
	<g style="stroke:black;stroke-width:20;fill:white">
		<path d="M 110 50 L 250 50 C 475 50, 530 250, 540 250 C 540 250, 475 450, 250 450 L 120 450 L 250 450 L 110 450 C 210 400, 210 100, 110 50 L 250 50 L 110 50 Z" />
		<path d="M 10 50 C 110 100, 110 400, 10 450 C 110 400, 110 100, 10 50 Z" />
		<circle cx="590" cy="250" r="35"/>
	</g>
	<!--<g style="stroke:none;fill:green">
		<circle cx="50" cy="150" r="20"/>
		<circle cx="50" cy="350" r="20"/>
		<circle cx="650" cy="250" r="20"/>
	</g>-->
</svg>